<mxfile host="Electron" modified="2024-04-03T06:11:16.389Z" agent="Mozilla/5.0 (Windows NT 10.0; Win64; x64) AppleWebKit/537.36 (KHTML, like Gecko) draw.io/21.7.5 Chrome/114.0.5735.289 Electron/25.8.1 Safari/537.36" etag="t_ByvPPk1219rPaoUFpT" version="21.7.5" type="device">
  <diagram name="第 1 页" id="drZV7VWg1jbdp_VA1ax0">
    <mxGraphModel dx="1434" dy="-1494" grid="0" gridSize="10" guides="1" tooltips="1" connect="1" arrows="1" fold="1" page="1" pageScale="1" pageWidth="827" pageHeight="1169" math="0" shadow="0">
      <root>
        <mxCell id="0" />
        <mxCell id="1" parent="0" />
        <mxCell id="E8mcKfvEjpnJNWXnAZW_-34" style="edgeStyle=orthogonalEdgeStyle;rounded=0;orthogonalLoop=1;jettySize=auto;html=1;exitX=0.75;exitY=1;exitDx=0;exitDy=0;entryX=0.5;entryY=0;entryDx=0;entryDy=0;startArrow=classic;startFill=1;strokeColor=#808080;strokeWidth=2;" parent="1" source="E8mcKfvEjpnJNWXnAZW_-2" target="E8mcKfvEjpnJNWXnAZW_-14" edge="1">
          <mxGeometry relative="1" as="geometry" />
        </mxCell>
        <mxCell id="E8mcKfvEjpnJNWXnAZW_-35" style="edgeStyle=orthogonalEdgeStyle;rounded=0;orthogonalLoop=1;jettySize=auto;html=1;exitX=0.25;exitY=1;exitDx=0;exitDy=0;entryX=0.5;entryY=0;entryDx=0;entryDy=0;strokeWidth=2;strokeColor=#97D077;startArrow=classic;startFill=1;" parent="1" source="E8mcKfvEjpnJNWXnAZW_-2" target="E8mcKfvEjpnJNWXnAZW_-4" edge="1">
          <mxGeometry relative="1" as="geometry" />
        </mxCell>
        <mxCell id="E8mcKfvEjpnJNWXnAZW_-2" value="&lt;font face=&quot;Times New Roman&quot; style=&quot;font-size: 18px&quot;&gt;Pipeline&lt;/font&gt;" style="whiteSpace=wrap;html=1;fontSize=20;fillColor=#dae8fc;strokeColor=#6c8ebf;" parent="1" vertex="1">
          <mxGeometry x="165" y="2380" width="306" height="70" as="geometry" />
        </mxCell>
        <mxCell id="E8mcKfvEjpnJNWXnAZW_-4" value="Dual Port RAM" style="rounded=0;whiteSpace=wrap;html=1;fontSize=20;fillColor=#d5e8d4;strokeColor=#82b366;" parent="1" vertex="1">
          <mxGeometry x="160" y="2600" width="162" height="60" as="geometry" />
        </mxCell>
        <mxCell id="E8mcKfvEjpnJNWXnAZW_-29" style="edgeStyle=orthogonalEdgeStyle;rounded=0;orthogonalLoop=1;jettySize=auto;html=1;exitX=0.25;exitY=1;exitDx=0;exitDy=0;entryX=0.75;entryY=0;entryDx=0;entryDy=0;startArrow=classic;startFill=1;strokeColor=#97D077;strokeWidth=2;" parent="1" source="E8mcKfvEjpnJNWXnAZW_-14" target="E8mcKfvEjpnJNWXnAZW_-4" edge="1">
          <mxGeometry relative="1" as="geometry" />
        </mxCell>
        <mxCell id="E8mcKfvEjpnJNWXnAZW_-32" style="edgeStyle=orthogonalEdgeStyle;rounded=0;orthogonalLoop=1;jettySize=auto;html=1;exitX=0.5;exitY=1;exitDx=0;exitDy=0;entryX=0.5;entryY=0;entryDx=0;entryDy=0;strokeColor=#999900;strokeWidth=2;" parent="1" source="E8mcKfvEjpnJNWXnAZW_-14" target="E8mcKfvEjpnJNWXnAZW_-33" edge="1">
          <mxGeometry relative="1" as="geometry">
            <mxPoint x="409" y="2599" as="targetPoint" />
          </mxGeometry>
        </mxCell>
        <mxCell id="KF_FpH33Zka6CTo_LA-k-2" style="edgeStyle=orthogonalEdgeStyle;rounded=0;orthogonalLoop=1;jettySize=auto;html=1;exitX=0.75;exitY=1;exitDx=0;exitDy=0;entryX=0.5;entryY=0;entryDx=0;entryDy=0;startArrow=classic;startFill=1;strokeColor=#F19C99;strokeWidth=2;" edge="1" parent="1" source="E8mcKfvEjpnJNWXnAZW_-14" target="KF_FpH33Zka6CTo_LA-k-1">
          <mxGeometry relative="1" as="geometry" />
        </mxCell>
        <mxCell id="E8mcKfvEjpnJNWXnAZW_-14" value="&lt;font face=&quot;Times New Roman&quot; style=&quot;font-size: 18px&quot;&gt;1x3&amp;nbsp;Bridge&lt;/font&gt;" style="shape=trapezoid;perimeter=trapezoidPerimeter;whiteSpace=wrap;html=1;fixedSize=1;fontSize=20;fillColor=#f5f5f5;fontColor=#333333;strokeColor=#666666;" parent="1" vertex="1">
          <mxGeometry x="331" y="2496" width="128" height="50" as="geometry" />
        </mxCell>
        <mxCell id="E8mcKfvEjpnJNWXnAZW_-33" value="&lt;font face=&quot;Times New Roman&quot; style=&quot;font-size: 18px&quot;&gt;VGA&lt;/font&gt;" style="rounded=0;whiteSpace=wrap;html=1;fontSize=20;fillColor=#fff2cc;strokeColor=#d6b656;" parent="1" vertex="1">
          <mxGeometry x="335" y="2600" width="120" height="60" as="geometry" />
        </mxCell>
        <mxCell id="KF_FpH33Zka6CTo_LA-k-3" style="edgeStyle=orthogonalEdgeStyle;rounded=0;orthogonalLoop=1;jettySize=auto;html=1;exitX=0.25;exitY=1;exitDx=0;exitDy=0;startArrow=classic;startFill=1;endArrow=none;endFill=0;strokeColor=#FFB570;strokeWidth=2;" edge="1" parent="1" source="KF_FpH33Zka6CTo_LA-k-1" target="KF_FpH33Zka6CTo_LA-k-5">
          <mxGeometry relative="1" as="geometry">
            <mxPoint x="500" y="2700" as="targetPoint" />
          </mxGeometry>
        </mxCell>
        <mxCell id="KF_FpH33Zka6CTo_LA-k-4" style="edgeStyle=orthogonalEdgeStyle;rounded=0;orthogonalLoop=1;jettySize=auto;html=1;exitX=0.75;exitY=1;exitDx=0;exitDy=0;entryX=0.5;entryY=0;entryDx=0;entryDy=0;strokeColor=#FFB570;strokeWidth=2;" edge="1" parent="1" source="KF_FpH33Zka6CTo_LA-k-1" target="KF_FpH33Zka6CTo_LA-k-6">
          <mxGeometry relative="1" as="geometry">
            <mxPoint x="560" y="2700" as="targetPoint" />
          </mxGeometry>
        </mxCell>
        <mxCell id="KF_FpH33Zka6CTo_LA-k-1" value="&lt;font face=&quot;Times New Roman&quot; style=&quot;font-size: 18px&quot;&gt;Confreg&lt;/font&gt;" style="rounded=0;whiteSpace=wrap;html=1;fontSize=20;fillColor=#f8cecc;strokeColor=#b85450;" vertex="1" parent="1">
          <mxGeometry x="470" y="2600" width="120" height="60" as="geometry" />
        </mxCell>
        <mxCell id="KF_FpH33Zka6CTo_LA-k-5" value="&lt;font face=&quot;Times New Roman&quot; style=&quot;font-size: 18px&quot;&gt;Switchs&lt;/font&gt;" style="rounded=0;whiteSpace=wrap;html=1;fontSize=20;fillColor=#ffe6cc;strokeColor=#d79b00;" vertex="1" parent="1">
          <mxGeometry x="470" y="2695" width="60" height="40" as="geometry" />
        </mxCell>
        <mxCell id="KF_FpH33Zka6CTo_LA-k-6" value="&lt;font face=&quot;Times New Roman&quot; style=&quot;font-size: 18px&quot;&gt;LEDs&lt;/font&gt;" style="rounded=0;whiteSpace=wrap;html=1;fontSize=20;fillColor=#ffe6cc;strokeColor=#d79b00;" vertex="1" parent="1">
          <mxGeometry x="535" y="2695" width="55" height="40" as="geometry" />
        </mxCell>
      </root>
    </mxGraphModel>
  </diagram>
</mxfile>
